# xmcd
#
# Track frame offsets: 
#        150
#        24397
#        49527
#
# Disc length: 858 seconds
#
# Revision: 3
# Processed by: cddbd v1.5.2PL0 Copyright (c) Steve Scherf et al.
# Submitted via: ExactAudioCopy v0.99pb4
#
DISCID=18035803
DTITLE=Westbam - Terminator
DYEAR=1996
DGENRE=Electronic
TTITLE0=Terminator (Original Mix)
TTITLE1=Terminator (Four To The Floor Mix)
TTITLE2=Terminator (Short Cut)
EXTD=
EXTT0=
EXTT1=
EXTT2=
PLAYORDER=
